<svg xmlns="http://www.w3.org/2000/svg" width="153.473" id="logo" height="25.039" viewBox="0 0 153.473 25.039"><defs><style>.a{fill:#282421}</style></defs><g transform="translate(-2411.488 -8160.262)"><path class="a" d="M2439.6,8173.593a9.818,9.818,0,0,1,8.707-9.775,9.441,9.441,0,0,1,7.963,2.652c.378.36.373.437,0,.785-.455.419-.924.824-1.363,1.259a.46.46,0,0,1-.76,0,6.733,6.733,0,0,0-11.263,3.009,7.1,7.1,0,0,0,4.426,8.831,6.609,6.609,0,0,0,6.888-1.662c.318-.29.516-.32.824-.024.434.418.889.817,1.361,1.191.335.265.331.486.04.772a9.681,9.681,0,0,1-5.382,2.763,9.864,9.864,0,0,1-11.436-9.8Z"/><path class="a" d="M2483.455,8172.9q0-4.839,0-9.677c0-.6,0-.6.608-.6s1.21.019,1.813-.007c.4-.016.521.124.52.52-.013,3.6-.008,7.205-.008,10.808,0,.09,0,.181,0,.271,0,.179-.033.378.194.455.208.072.3-.1.4-.222,1.005-1.166,2.036-2.309,3-3.51a1.581,1.581,0,0,1,1.558-.726,13.4,13.4,0,0,0,1.359.014c.2,0,.445-.093.565.161s-.095.388-.228.541c-1.068,1.229-2.13,2.464-3.217,3.676a.635.635,0,0,0-.062.958c1.663,2.31,3.294,4.644,4.936,6.97.12.17.3.335.174.564s-.349.135-.537.137c-.65.007-1.3-.01-1.95.009a.629.629,0,0,1-.592-.315q-1.876-2.659-3.771-5.3c-.356-.5-.351-.446-.8-.053a3.023,3.023,0,0,0-1.039,2.8c.08.791,0,1.6.021,2.4.007.354-.125.483-.478.473-.65-.019-1.3-.025-1.95,0-.406.017-.519-.143-.518-.528C2483.46,8179.443,2483.455,8176.172,2483.455,8172.9Z"/><path class="a" d="M2475.923,8169.943a6.651,6.651,0,0,1,4.656,1.82c.3.28.33.491.007.77a16.012,16.012,0,0,0-1.183,1.12c-.293.312-.486.253-.779-.018a3.612,3.612,0,0,0-4.575-.459,4.094,4.094,0,0,0-1.7,3.952,3.828,3.828,0,0,0,1.747,3.159,3.668,3.668,0,0,0,4.633-.6c.458-.471.458-.471.981-.059.379.3.746.615,1.141.892.356.25.324.471.064.773a6.5,6.5,0,0,1-7.722,1.545,6.763,6.763,0,0,1-3.69-7.125,6.669,6.669,0,0,1,5.351-5.66A4.252,4.252,0,0,1,2475.923,8169.943Z"/><path class="a" d="M2458.954,8172.875c0-3.241.007-6.482-.009-9.722,0-.421.122-.559.542-.539.633.031,1.27.02,1.9,0,.338-.009.489.084.488.457q-.013,9.858,0,19.716c0,.337-.123.456-.453.449-.665-.014-1.331-.022-2,0-.391.015-.483-.146-.482-.508C2458.958,8179.447,2458.954,8176.161,2458.954,8172.875Z"/><path class="a" d="M2467.136,8176.719c0,1.989-.008,3.977.007,5.966,0,.4-.107.577-.539.557a19.03,19.03,0,0,0-1.9,0c-.46.025-.52-.2-.519-.577q.012-5.175,0-10.35c0-.527.011-1.055,0-1.581-.01-.34.106-.5.47-.489q1,.027,1.994,0c.377-.01.5.138.5.508C2467.129,8172.742,2467.136,8174.731,2467.136,8176.719Z"/><path class="a" d="M2465.722,8164.551a2.064,2.064,0,0,1,2.049,2.043,2.065,2.065,0,1,1-4.129-.042A2.042,2.042,0,0,1,2465.722,8164.551Z"/><path class="a" d="M2506.2,8163.752a9.255,9.255,0,0,1,5.97,2.753c.255.243.323.44.015.7q-.758.645-1.475,1.337c-.252.241-.431.228-.687-.007a6.765,6.765,0,0,0-11.466,3.651,7.084,7.084,0,0,0,4.355,8.08,6.579,6.579,0,0,0,7.011-1.457c.548-.478.541-.484,1.09,0,.408.358.81.724,1.233,1.064.3.243.333.435.046.731a9.877,9.877,0,1,1-12-15.489A10.745,10.745,0,0,1,2506.2,8163.752Z"/><path class="a" d="M2546.17,8183.512a6.3,6.3,0,0,1-4.849-2.128,1.38,1.38,0,0,1-.374-1.291,1.191,1.191,0,0,1,.912-.909,1.243,1.243,0,0,1,1.3.431,4.147,4.147,0,0,0,2.607,1.411,2.421,2.421,0,0,0,1.9-.379,1.131,1.131,0,0,0,.117-1.855,4.807,4.807,0,0,0-1.4-.821,16.2,16.2,0,0,1-2.985-1.487,3.44,3.44,0,0,1-.562-5.211,4.106,4.106,0,0,1,2.818-1.273,4.886,4.886,0,0,1,4.009,1.391,1.229,1.229,0,0,1,.157,1.835,1.242,1.242,0,0,1-1.846-.08,2.6,2.6,0,0,0-2.177-.783,1.213,1.213,0,0,0-1.108.915,1.089,1.089,0,0,0,.569,1.218,10.124,10.124,0,0,0,1.934.967,9.043,9.043,0,0,1,2.791,1.637,3.564,3.564,0,0,1-.22,5.279A5.373,5.373,0,0,1,2546.17,8183.512Z"/><path class="a" d="M2564.865,8175.461a6.456,6.456,0,0,0-1.9-4.046,6.6,6.6,0,0,0-7.25-.724,6.891,6.891,0,0,0-3.244,7.432,6.916,6.916,0,0,0,11.948,3.026c.264-.323.313-.549-.077-.792-.267-.167-.507-.379-.76-.569-.729-.544-.729-.543-1.385.1-.032.032-.062.066-.1.095a4.323,4.323,0,0,1-4.227.917,3.551,3.551,0,0,1-2.532-2.855c-.125-.529-.06-.6.493-.6q4.262,0,8.524,0c.184,0,.405.078.522-.159l0-.936h0c.014-.178-.113-.377.074-.531v-.091C2564.809,8175.681,2564.877,8175.552,2564.865,8175.461Zm-3.309.039c-.952,0-1.9,0-2.856,0s-1.905,0-2.857,0c-.309,0-.492-.074-.414-.449a3.452,3.452,0,0,1,4.772-2.393,3.21,3.21,0,0,1,1.767,2.423C2562.04,8175.415,2561.848,8175.5,2561.556,8175.5Z"/><path class="a" d="M2539.654,8174.869a4.75,4.75,0,0,0-1.585-3.658,6.582,6.582,0,0,0-8.876.757c-.249.287-.28.5.061.735.458.32.9.665,1.335,1.012a.4.4,0,0,0,.652-.068,3.369,3.369,0,0,1,1.613-1.04c2.155-.674,4.016.588,3.982,2.686-.006.377-.145.489-.5.407a11.94,11.94,0,0,0-2.242-.3,7.5,7.5,0,0,0-4.687,1.057,3.774,3.774,0,0,0,.413,6.571,6.139,6.139,0,0,0,6.824-1.4c.446-.507.5-.5.79.082a2.585,2.585,0,0,0,1.587,1.386c.516.161.631.082.632-.442q0-2.013,0-4.026C2539.658,8177.372,2539.67,8176.12,2539.654,8174.869Zm-2.93,3.272a4.035,4.035,0,0,1-4.7,2.923,1.568,1.568,0,0,1-1.328-1.254,1.606,1.606,0,0,1,.687-1.658,4.15,4.15,0,0,1,2.789-.72,11.827,11.827,0,0,1,2.2.217C2536.668,8177.694,2536.8,8177.823,2536.724,8178.141Z"/><path class="a" d="M2517.322,8177.444h4.218c1.452,0,2.9-.008,4.355.006.371,0,.513-.123.506-.5a12.967,12.967,0,0,0-.1-1.623,6.288,6.288,0,0,0-1.905-3.943,6.6,6.6,0,0,0-7.686-.413,7.194,7.194,0,0,0-1.612,9.919,6.576,6.576,0,0,0,6.219,2.589,6.261,6.261,0,0,0,4.631-2.414c.223-.279.207-.459-.083-.663-.407-.286-.8-.588-1.19-.9-.277-.226-.489-.227-.719.068a3.77,3.77,0,0,1-1.214,1c-1.942,1.036-5.158.723-5.924-2.455C2516.678,8177.528,2516.739,8177.445,2517.322,8177.444Zm-.375-2.57a3.411,3.411,0,0,1,4.158-2.41,3.2,3.2,0,0,1,2.334,2.652c.048.381-.194.381-.444.381-.951,0-1.9,0-2.852,0-.92,0-1.841,0-2.761,0C2516.839,8175.5,2516.777,8175.4,2516.947,8174.874Z"/><path class="a" d="M2423.866,8162.118a33.66,33.66,0,0,1,3.924.25,31.825,31.825,0,0,1,4.869,1c.542.156,1.1.338,1.705.549a19.006,19.006,0,0,1,.077,2.178,21.942,21.942,0,0,1-.173,2.247,20.119,20.119,0,0,1-.591,2.874,19.251,19.251,0,0,1-1.26,3.268,19.71,19.71,0,0,1-2.472,3.8,20.667,20.667,0,0,1-2.4,2.449,22.6,22.6,0,0,1-2.393,1.8c-.414.271-.835.528-1.257.767a22.5,22.5,0,0,1-3.076-2.092,20.913,20.913,0,0,1-3.188-3.194,19.293,19.293,0,0,1-3.841-8.109,19.8,19.8,0,0,1-.368-2.527,18.867,18.867,0,0,1-.072-2.069c.012-.425.031-.9.075-1.394.424-.151.819-.282,1.194-.4a31.061,31.061,0,0,1,3.43-.85c1.046-.2,2.1-.34,3.136-.428.847-.072,1.749-.114,2.681-.125m0-1.856c-.942.01-1.89.051-2.836.132a33.471,33.471,0,0,0-3.321.452,32.762,32.762,0,0,0-3.635.9c-.633.195-1.257.413-1.876.644a.758.758,0,0,0-.537.635,20.158,20.158,0,0,0-.165,2.234,22.887,22.887,0,0,0,.48,5.033,21.135,21.135,0,0,0,4.206,8.882,22.734,22.734,0,0,0,3.47,3.48,24.305,24.305,0,0,0,3.817,2.532.889.889,0,0,0,.427.114.907.907,0,0,0,.433-.116q.95-.508,1.843-1.1a24.251,24.251,0,0,0,2.591-1.953,22.382,22.382,0,0,0,2.616-2.671,21.407,21.407,0,0,0,2.7-4.158,21.018,21.018,0,0,0,1.382-3.583,21.857,21.857,0,0,0,.645-3.14,23.586,23.586,0,0,0,.188-2.435,22.539,22.539,0,0,0-.142-3.006.824.824,0,0,0-.573-.759c-.792-.292-1.592-.563-2.406-.8a33.475,33.475,0,0,0-5.154-1.06,35.727,35.727,0,0,0-4.157-.264Z"/><path class="a" d="M2422.706,8176.8l-4.417-4.124a.655.655,0,0,1-.032-.927l.795-.851a.654.654,0,0,1,.926-.031l3.157,2.947,5.945-6.646a.654.654,0,0,1,.925-.051l.868.776a.654.654,0,0,1,.051.925l-7.093,7.931A.787.787,0,0,1,2422.706,8176.8Z"/></g></svg>